<svg width="100" height="100" xmlns="http://www.w3.org/2000/svg"><g><path d="M0 50C0 22.386 22.386 0 50 0s50 22.386 50 50-22.386 50-50 50S0 77.614 0 50z" fill="#0091db" fill-rule="evenodd"/><path d="M71.187 44.971v-4.44a3.26 3.26 0 0 0-.937-2.293v-7.082A5.162 5.162 0 0 0 65.094 26H31.156A5.162 5.162 0 0 0 26 31.156v22.5a5.162 5.162 0 0 0 5.156 5.156h10.33l-.937 2.813h-.862a4.224 4.224 0 0 0-4.218 4.218v2.813a1.406 1.406 0 0 0 1.406 1.406h11.192a3.286 3.286 0 0 0 2.964 1.875h5.392A3.285 3.285 0 0 0 59.47 74h11.25A3.285 3.285 0 0 0 74 70.718v-22.5a3.286 3.286 0 0 0-2.812-3.247zm-40.03-16.159h33.937a2.346 2.346 0 0 1 2.343 2.344v6.094H51.031a3.285 3.285 0 0 0-3.281 3.281v9.844H28.812V31.156a2.346 2.346 0 0 1 2.344-2.344zm19.405 34.219v-22.5a.469.469 0 0 1 .47-.469h16.874c.26 0 .469.21.469.469v4.406h-8.906a3.282 3.282 0 0 0-3.282 3.281V63.5h-5.624v-.47zM59.47 47.75h11.25a.47.47 0 0 1 .468.469v17.343H59V48.22a.47.47 0 0 1 .469-.47zm-30.657 5.906v-.469H47.75V56H31.156a2.346 2.346 0 0 1-2.343-2.344zM70.72 71.187h-11.25a.47.47 0 0 1-.469-.469v-2.343h12.188v2.343a.47.47 0 0 1-.47.47zm-31.031-6.75h8.062v2.813h-9.469v-1.407c0-.775.631-1.406 1.407-1.406zm10.874 4.219v-2.344h5.626v2.813H51.03a.47.47 0 0 1-.468-.47zm-6.11-9.844h3.298v2.813h-4.236l.937-2.813z" fill="#fff" fill-rule="evenodd"/></g></svg>