<svg width="100" height="100" xmlns="http://www.w3.org/2000/svg"><g><path d="M0 50C0 22.386 22.386 0 50 0s50 22.386 50 50-22.386 50-50 50S0 77.614 0 50z" fill="#0091db" fill-rule="evenodd"/><g><path d="M46.338 43.44h-2.445a2.444 2.444 0 0 1-4.889 0H36.56a4.889 4.889 0 1 0 9.778 0z" fill="#fff" fill-rule="evenodd"/><path d="M65.754 57.904l-9.643-3.136v-3.21a12.222 12.222 0 0 0 6.111-10.568v-2.444a1.222 1.222 0 0 0 1.222-1.223v-4.889c0-7.425-6.019-13.444-13.444-13.444-7.425 0-13.444 6.02-13.444 13.444v4.89a1.222 1.222 0 0 0 1.222 1.222v2.444a12.222 12.222 0 0 0 6.11 10.569v3.21L34.3 57.89A8.592 8.592 0 0 0 28 66.142V78.88c0 .675.547 1.222 1.222 1.222h41.556c.675 0 1.222-.547 1.222-1.222V66.143a8.574 8.574 0 0 0-6.246-8.239zm3.802 19.753h-4.89v-11h-2.444v11H52.95l1.58-1.58a1.222 1.222 0 0 0 .342-1.066l-2.379-14.274 1.929-3.858h.273l10.355 3.366a6.143 6.143 0 0 1 4.506 5.898v11.514zM35.002 60.229l10.303-3.35h.273l1.929 3.858-2.379 14.274a1.224 1.224 0 0 0 .341 1.065l1.58 1.58h-9.271v-11h-2.445v11h-4.889V66.144a6.161 6.161 0 0 1 4.558-5.914zM61 32.434v3.667h-.645a3.657 3.657 0 0 1-3.28-2.026l-1.086-2.187a1.222 1.222 0 0 0-1.1-.676c-.324 0-.635.129-.864.358l-.593.593a13.357 13.357 0 0 1-9.508 3.938H39v-3.667c0-6.075 4.925-11 11-11s11 4.925 11 11zM40.222 40.99v-2.444H43.97c3.907 0 7.675-1.45 10.574-4.07l.345.691a6.065 6.065 0 0 0 4.889 3.338v2.485c0 5.4-4.378 9.778-9.778 9.778s-9.778-4.378-9.778-9.778zM50 77.15l-2.358-2.357 2.171-13.025h.374l2.17 13.025L50 77.151zm3.668-24.502l-.001 1.786h-7.334V52.65c1.186.373 2.422.563 3.666.563H50c1.244 0 2.481-.19 3.668-.564zm-3.201 6.675h-.934l-1.222-2.444h3.378l-1.222 2.444z" fill="#fff" fill-rule="evenodd"/></g></g></svg>