<svg width="100" height="100" xmlns="http://www.w3.org/2000/svg"><g><path d="M0 50C0 22.386 22.386 0 50 0s50 22.386 50 50-22.386 50-50 50S0 77.614 0 50z" fill="#0091db" fill-rule="evenodd"/><g><path d="M72.905 43.714l-.008-.02a.084.084 0 0 1-.002-.005l-3.519-8.798a1.324 1.324 0 0 0-1.229-.832h-3.53v-5.735c0-.731-.592-1.324-1.323-1.324H37.706c-.731 0-1.324.593-1.324 1.324v5.735h-3.53c-.54 0-1.027.33-1.228.832l-3.52 8.798v.003l-.01.022a1.317 1.317 0 0 0-.094.492v1.941a5.56 5.56 0 0 0 2.647 4.733v19.973c0 .73.593 1.324 1.324 1.324h37.058c.731 0 1.324-.593 1.324-1.324V50.88A5.562 5.562 0 0 0 73 46.147v-1.941a1.317 1.317 0 0 0-.095-.492zm-5.2 25.815H49.178V55.853a1.324 1.324 0 0 0-1.324-1.324H37.265c-.731 0-1.324.593-1.324 1.324v13.676h-2.647V51.7a5.547 5.547 0 0 0 4.5-1.958 5.55 5.55 0 0 0 7.617.814c.312-.24.598-.513.854-.813a5.55 5.55 0 0 0 8.47 0 5.55 5.55 0 0 0 7.617.813c.312-.24.599-.513.854-.813a5.55 5.55 0 0 0 4.5 1.957v17.83zM33.75 36.706h2.633v2.206c0 .73.593 1.323 1.324 1.323h25.588c.731 0 1.324-.592 1.324-1.323v-2.206h2.633l2.47 6.176H31.279l2.47-6.176zm5.28-7.059h22.942v7.941H39.029v-7.94zm-.44 39.882V57.177h7.94v12.352h-7.94zm.529-24h5.823v.618a2.915 2.915 0 0 1-2.912 2.912 2.915 2.915 0 0 1-2.911-2.912v-.618zm25.411.618v-.618h5.824v.618a2.915 2.915 0 0 1-2.912 2.912 2.915 2.915 0 0 1-2.912-2.912zm-8.47-.618h5.823v.618a2.915 2.915 0 0 1-2.911 2.912 2.915 2.915 0 0 1-2.912-2.912v-.618zm-25.412.618v-.618h5.824v.618a2.915 2.915 0 0 1-2.912 2.912 2.915 2.915 0 0 1-2.912-2.912zm16.941-.618h5.824v.618A2.915 2.915 0 0 1 50.5 49.06a2.915 2.915 0 0 1-2.912-2.912v-.618zm-19.484-1.837l-.001.002" fill="#fff" fill-rule="evenodd"/><path d="M43.004 34.947h15a1.324 1.324 0 1 0 0-2.647h-15a1.324 1.324 0 0 0 0 2.647zM63.732 54.53H53.144c-.731 0-1.324.593-1.324 1.323v7.942c0 .73.593 1.323 1.324 1.323h10.588c.73 0 1.323-.592 1.323-1.323v-7.942c0-.73-.592-1.323-1.323-1.323zm-1.324 7.941h-7.94v-5.294h7.94v5.294zM42.12 62.034v1.764a1.324 1.324 0 0 0 2.647 0v-1.764a1.324 1.324 0 0 0-2.647 0z" fill="#fff" fill-rule="evenodd"/></g></g></svg>