<svg width="100" height="100" xmlns="http://www.w3.org/2000/svg"><g><path d="M0 50C0 22.386 22.386 0 50 0s50 22.386 50 50-22.386 50-50 50S0 77.614 0 50z" fill="#0091db" fill-rule="evenodd"/><g><path d="M49.88 28.092l-16.73 5.751a1.722 1.722 0 0 0-1.144 1.637v18.91a7.41 7.41 0 0 0 .681 3.18 25.932 25.932 0 0 0 5.23 7.17c4.689 4.656 10.23 7.385 11.623 8.029.109.05.219.1.33.148.174.054.356.083.54.086h.574c.178-.003.354-.032.523-.086 0 0 12.063-5.34 16.662-15.383a7.431 7.431 0 0 0 .644-3.097V35.48a1.722 1.722 0 0 0-1.144-1.637l-16.73-5.751a1.628 1.628 0 0 0-1.059 0zm.53 2.859l15.527 5.337v18.15a4.537 4.537 0 0 1-.383 1.899c-3.67 8.015-12.98 12.87-14.873 13.79h-.001a30.515 30.515 0 0 1-.86-.418c-2.439-1.234-8.126-4.457-12.046-9.418a20.808 20.808 0 0 1-2.49-3.956 4.568 4.568 0 0 1-.403-1.945V36.288l15.528-5.337z" fill="#fff" fill-rule="evenodd"/><path d="M47.837 54.287l-4.55-3.84a1.27 1.27 0 0 0-1.315-.305 1.31 1.31 0 0 0-.87 1.247c0 .431.207.836.559 1.086l5.463 4.612a1.265 1.265 0 0 0 1.727-.082 321.427 321.427 0 0 0 4.263-4.488c2.147-2.293 4.306-4.622 6.342-6.712.383-.38.498-.964.289-1.466-.21-.503-.7-.82-1.233-.8a1.272 1.272 0 0 0-.884.402 389.882 389.882 0 0 0-5.095 5.37 522.39 522.39 0 0 1-4.696 4.976z" fill="#fff" fill-rule="evenodd"/></g></g></svg>