<svg width="100" height="100" xmlns="http://www.w3.org/2000/svg"><g><path d="M0 50C0 22.386 22.386 0 50 0s50 22.386 50 50-22.386 50-50 50S0 77.614 0 50z" fill="#0091db" fill-rule="evenodd"/><path d="M69.68 63.123h-.818V49.782a3.688 3.688 0 0 0-3.683-3.684H53.8v-5.975c0-.678-.55-1.228-1.228-1.228h-1.391v-1.611c.445-.102.87-.282 1.253-.53 1.792-1.184 1.838-3.662.49-5.24a3.923 3.923 0 0 0-.197-.214l-1.896-1.94a1.228 1.228 0 0 0-1.756.001l-1.845 1.89a3.873 3.873 0 0 0-1.183 2.8c-.01.625.161 1.24.493 1.77.372.583.942 1.03 1.66 1.302.172.065.347.118.525.16v1.612h-1.391c-.678 0-1.228.55-1.228 1.228v5.975H34.73a3.688 3.688 0 0 0-3.684 3.684v13.341h-.818c-.678 0-1.228.55-1.228 1.228v5.32c0 .679.55 1.228 1.228 1.228H69.68c.678 0 1.228-.55 1.228-1.227v-5.32c0-.679-.55-1.229-1.228-1.229zm-3.274-6.793v6.793H33.502V56.33c.242.053.489.08.737.082a3.976 3.976 0 0 0 1.622-.382 6.853 6.853 0 0 0 1.862-1.285c.315-.31 1.16-.953 1.754-.953.092.001.183.014.272.038.555.141 1.21.647 1.478.91l.001.002c.025.025.05.05.077.074.362.343 1.75 1.552 3.326 1.594l.085.002a3.976 3.976 0 0 0 1.622-.382 6.842 6.842 0 0 0 1.862-1.284c.313-.31 1.148-.945 1.741-.954h.013c.594 0 1.439.642 1.751.95.025.025.05.05.077.074.369.35 1.8 1.596 3.41 1.596 1.768 0 3.317-1.499 3.485-1.666.316-.312 1.16-.954 1.754-.954.595 0 1.439.642 1.751.95.025.025.05.05.077.074.369.35 1.8 1.596 3.41 1.596.248-.001.495-.029.737-.082zm2.047 12.114H31.456v-2.865h36.997v2.865zM34.73 48.554h30.449c.677 0 1.227.55 1.227 1.227v3.953a2.18 2.18 0 0 1-.53.199 1.017 1.017 0 0 1-.206.023 1.11 1.11 0 0 1-.272-.038c-.555-.14-1.21-.647-1.478-.91l-.001-.002a3.886 3.886 0 0 0-.077-.074c-.369-.35-1.8-1.595-3.41-1.595a3.976 3.976 0 0 0-1.623.381 6.836 6.836 0 0 0-1.862 1.285 2.988 2.988 0 0 1-.117.109c-.375.33-1.106.844-1.637.844a1.11 1.11 0 0 1-.272-.038c-.556-.141-1.212-.649-1.48-.912a3.886 3.886 0 0 0-.076-.074c-.363-.343-1.75-1.552-3.327-1.594l-.084-.001a3.976 3.976 0 0 0-1.622.381 6.853 6.853 0 0 0-1.862 1.285 2.988 2.988 0 0 1-.117.109c-.375.33-1.106.844-1.637.844-.594 0-1.436-.64-1.75-.949l-.002-.001a3.886 3.886 0 0 0-.076-.074c-.37-.35-1.8-1.595-3.411-1.595a3.976 3.976 0 0 0-1.622.381 6.854 6.854 0 0 0-1.862 1.285c-.314.308-1.148.944-1.742.953h-.012c-.075-.001-.15-.01-.222-.027a1.78 1.78 0 0 1-.246-.075 2.716 2.716 0 0 1-.27-.12V49.78c.002-.677.55-1.227 1.229-1.227zm13.833-7.203h2.783v4.747h-2.783v-4.747zm1.392-9.375l1.02 1.044a1.45 1.45 0 0 1 .427 1.142c-.022.285-.188.804-1.448.804-1.45 0-1.451-.689-1.451-.915a1.439 1.439 0 0 1 .447-1.047c.018-.016.035-.034.769-.787l.236-.241z" fill="#fff" fill-rule="evenodd" style="stroke:none;stroke-width:0;stroke-dasharray:none;stroke-linecap:butt;stroke-dashoffset:0;stroke-linejoin:miter;stroke-miterlimit:4;fill:#fff;fill-rule:evenodd;opacity:1"/></g></svg>