<svg width="100" height="100" xmlns="http://www.w3.org/2000/svg"><g><path d="M0 50C0 22.386 22.386 0 50 0s50 22.386 50 50-22.386 50-50 50S0 77.614 0 50z" fill="#0091db" fill-rule="evenodd"/><path d="M68.01 46.141V65.12c.095.018.193.06.282.06a.245.245 0 0 0 .042-.004c.104-.018.208-.03.313-.037.823-.056 1.438.272 1.968.799.215.218.412.452.59.7 1.038 1.407 1.877 2.883 2.146 4.64.014.09.025.18.032.27.094 1.135-.42 1.72-1.587 1.777a3.989 3.989 0 0 1-.193.004 588422.144 588422.144 0 0 1-42.803 0c-1.31 0-1.894-.587-1.786-1.79a3.88 3.88 0 0 1 .031-.255 10.373 10.373 0 0 1 3.071-5.66c.239-.245.664-.351 1.026-.42l.018-.004c.15-.026.3-.038.452-.036.237 0 .485.02.747.02h.013V46.094a2.2 2.2 0 0 1-.151-.026c-.111-.022-.22-.044-.322-.027a2.79 2.79 0 0 1-.283.03c-.994.057-1.671-.48-2.271-1.282a10.85 10.85 0 0 1-2.217-4.43 7.24 7.24 0 0 1-.03-.163c-.238-1.42-.075-1.773 1.196-2.41 1.65-.83 3.302-1.66 4.953-2.488 5.327-2.674 10.654-5.349 15.973-8.037.684-.345 1.263-.353 1.948-.007 7.032 3.55 14.075 7.077 21.115 10.611l.04.02c.952.489 1.193.977 1.033 2.03a10.445 10.445 0 0 1-3.049 5.674 1.048 1.048 0 0 1-.33.221 3.465 3.465 0 0 1-.712.207 2.523 2.523 0 0 1-.522.044c-.143 0-.287-.005-.43-.005a4.348 4.348 0 0 0-.152.002c-.038.004-.077.042-.148.081a.707.707 0 0 1-.003.002zm2.573-5.502h-40.66c.138.218.274.437.409.656.13.213.258.42.385.622.212.341.439.673.679.995.163.214.508.387.8.424a.889.889 0 0 0 .101.007c1.915.017 3.83.025 5.745.023l3.707-.001c8.807 0 17.615.002 26.423-.006.039 0 .078 0 .117-.002.182-.008.39-.037.508-.119a.249.249 0 0 0 .059-.055c.203-.275.4-.554.592-.837.182-.267.363-.54.55-.824.194-.295.39-.59.585-.883zm-40.656 29.9h40.568l-.01-.016c-.405-.67-.761-1.248-1.104-1.826a52.04 52.04 0 0 1-.076-.13 1.497 1.497 0 0 0-.281-.355c-.257-.234-.582-.324-1.016-.323-3.296.014-6.592.02-9.888.019l-7.43-.002h-.488c-3.121 0-6.242 0-9.363.002-2.838 0-5.675.004-8.512.01-.046 0-.09.002-.136.005-.221.014-.475.061-.611.174a.317.317 0 0 0-.051.052c-.387.51-.735 1.048-1.111 1.632-.162.253-.326.506-.491.758zm4.37-32.676h31.808l-.002-.001c-.152-.13-.2-.184-.25-.214a.21.21 0 0 0-.014-.008l-1.43-.719c-4.605-2.32-9.216-4.63-13.831-6.93a.516.516 0 0 0-.134-.043 1.17 1.17 0 0 0-.677.106c-4.6 2.294-9.197 4.596-13.79 6.907l-.981.493c-.176.089-.342.199-.67.392l-.029.017zm6.309 26.548v.717h5.51V46.034c-.457 0-.913.002-1.37.005-.453.003-.904.005-1.354.005a71.164 71.164 0 0 1-2.054-.025c-.583-.005-.75.185-.747.804.012 3.213.018 6.427.017 9.64l-.002 7.948zm13.746-18.37V65.15h5.505a1071.984 1071.984 0 0 0 0-.742l.002-2.896.003-5.794.001-3.56c.001-1.825-.004-3.65-.014-5.475a.516.516 0 0 0-.007-.075c-.034-.216-.188-.523-.285-.538l-.006-.001a142.55 142.55 0 0 0-3.244-.03l-.974.002h-.981zM51.567 65.15V46.073h-2.68V65.15h2.68zM37.913 46.073h-2.676V65.14h2.676V46.073zM65.239 65.15V46.08h-2.674v19.07h2.674z" fill="#fff" fill-rule="evenodd" style="stroke:none;stroke-width:0;stroke-dasharray:none;stroke-linecap:butt;stroke-dashoffset:0;stroke-linejoin:miter;stroke-miterlimit:4;fill:#fff;fill-rule:evenodd;opacity:1"/></g></svg>