<svg width="100" height="100" xmlns="http://www.w3.org/2000/svg"><g><path d="M0 50C0 22.386 22.386 0 50 0s50 22.386 50 50-22.386 50-50 50S0 77.614 0 50z" fill="#0091db" fill-rule="evenodd"/><g><g><path d="M73.135 38.278l-.002.002-6.805-6.805a1.701 1.701 0 0 0-2.405 2.405l3.903 3.903h-9.503c-6.574.007-11.901 5.335-11.909 11.908a8.516 8.516 0 0 1-8.506 8.506H27.701a1.701 1.701 0 1 0 0 3.403h10.207c6.574-.008 11.901-5.335 11.909-11.909a8.516 8.516 0 0 1 8.506-8.506h9.502l-3.9 3.901a1.7 1.7 0 0 0 .83 2.888 1.7 1.7 0 0 0 1.575-.482l6.805-6.805a1.7 1.7 0 0 0 .003-2.406zm.003.003a.09.09 0 0 1-.003-.003" fill="#fff" fill-rule="evenodd" style="stroke:none;stroke-width:0;stroke-dasharray:none;stroke-linecap:butt;stroke-dashoffset:0;stroke-linejoin:miter;stroke-miterlimit:4;fill:#fff;fill-rule:evenodd;opacity:1"/></g><g><path d="M73.134 58.69h-.002l-6.804-6.804a1.701 1.701 0 0 0-2.406 2.405l3.903 3.903h-9.509a8.494 8.494 0 0 1-5.666-2.166 1.7 1.7 0 0 0-2.27 2.535 11.89 11.89 0 0 0 7.942 3.033h9.502l-3.9 3.901a1.7 1.7 0 0 0 .84 2.89 1.699 1.699 0 0 0 1.565-.484l6.805-6.805a1.7 1.7 0 0 0 .003-2.406zm.003.002a.042.042 0 0 0-.003-.003" fill="#fff" fill-rule="evenodd" style="stroke:none;stroke-width:0;stroke-dasharray:none;stroke-linecap:butt;stroke-dashoffset:0;stroke-linejoin:miter;stroke-miterlimit:4;fill:#fff;fill-rule:evenodd;opacity:1"/></g><g><path d="M37.908 37.782H27.701a1.701 1.701 0 1 0 0 3.402h10.207a8.493 8.493 0 0 1 5.672 2.166 1.7 1.7 0 0 0 2.27-2.535 11.89 11.89 0 0 0-7.942-3.033z" fill="#fff" fill-rule="evenodd" style="stroke:none;stroke-width:0;stroke-dasharray:none;stroke-linecap:butt;stroke-dashoffset:0;stroke-linejoin:miter;stroke-miterlimit:4;fill:#fff;fill-rule:evenodd;opacity:1"/></g></g></g></svg>