<svg xmlns="http://www.w3.org/2000/svg" width="36.808" height="45" viewBox="253 941.361 36.808 45"><g data-name="Espace sécurisé"><g data-name="Shield"><path d="m270.875 941.45-16.73 5.751a1.722 1.722 0 0 0-1.145 1.637v18.91a7.41 7.41 0 0 0 0 .076 7.402 7.402 0 0 0 .682 3.103 25.932 25.932 0 0 0 5.23 7.172c4.689 4.655 10.23 7.384 11.622 8.028a14.392 14.392 0 0 0 .33.148 1.943 1.943 0 0 0 .54.086h.575c.177-.003.354-.032.523-.086 0 0 12.063-5.34 16.661-15.383a7.431 7.431 0 0 0 .645-3.027 7.433 7.433 0 0 0 0-.07v-18.957a1.722 1.722 0 0 0-1.145-1.637l-16.73-5.751a1.628 1.628 0 0 0-.529-.089 1.627 1.627 0 0 0-.529.089Zm.529 2.859 15.528 5.338v18.148a4.537 4.537 0 0 1 0 .075 4.533 4.533 0 0 1-.383 1.825c-3.67 8.015-12.98 12.87-14.873 13.79h-.002a30.515 30.515 0 0 1-.859-.418c-2.439-1.234-8.126-4.457-12.046-9.418a20.808 20.808 0 0 1-2.49-3.955 4.568 4.568 0 0 1-.403-1.878 4.57 4.57 0 0 1 0-.068v-18.102l15.528-5.337Z" fill="#fff" fill-rule="evenodd" data-name="Tracé 27"/><path d="m268.838 967.642-4.549-3.84a1.27 1.27 0 0 0-.9-.376c-.14 0-.28.023-.416.071a1.31 1.31 0 0 0-.857 1.069 1.352 1.352 0 0 0-.012.178 1.328 1.328 0 0 0 .558 1.087l5.463 4.612a1.267 1.267 0 0 0 .585.28c.404.076.834-.047 1.142-.363a321.427 321.427 0 0 0 4.264-4.488c2.146-2.293 4.306-4.621 6.341-6.712.384-.38.499-.963.29-1.466-.21-.502-.701-.82-1.234-.799a1.272 1.272 0 0 0-.884.402 389.481 389.481 0 0 0-5.094 5.37 522.39 522.39 0 0 1-4.697 4.975Z" fill="#fff" fill-rule="evenodd" data-name="Tracé 28"/></g></g></svg>