<svg width="60" height="60" xmlns="http://www.w3.org/2000/svg"><g><path d="M0 30C0 13.431 13.431 0 30 0c16.569 0 30 13.431 30 30 0 16.569-13.431 30-30 30C13.431 60 0 46.569 0 30z" fill="#0091db" fill-rule="evenodd"/><g><g><path d="M42.61 24.276v.001l-3.542-3.541a.885.885 0 0 0-1.252 1.252l2.03 2.03h-4.945a6.205 6.205 0 0 0-6.197 6.198 4.432 4.432 0 0 1-4.427 4.427h-5.312a.885.885 0 0 0 0 1.77h5.312a6.204 6.204 0 0 0 6.198-6.197A4.432 4.432 0 0 1 34.9 25.79h4.946l-2.03 2.03a.884.884 0 0 0 1.23 1.274l.022-.023 3.54-3.541a.885.885 0 0 0 .003-1.252zm.001.002s0 0 0 0" stroke="#f9f9f9" stroke-width=".7" fill="#f9f9f9" fill-rule="evenodd" style="stroke:#f9f9f9;stroke-width:.7;stroke-dasharray:none;stroke-linecap:butt;stroke-dashoffset:0;stroke-linejoin:miter;stroke-miterlimit:4;fill:#f9f9f9;fill-rule:evenodd;opacity:1"/></g><g><path d="M42.636 34.897l-.001.001-3.541-3.541a.885.885 0 0 0-1.252 1.252l2.03 2.03h-4.945-.003a4.42 4.42 0 0 1-2.948-1.126.885.885 0 0 0-1.181 1.319 6.188 6.188 0 0 0 4.132 1.578h4.946l-2.03 2.03a.884.884 0 0 0 1.252 1.252l3.54-3.541a.885.885 0 0 0 0-1.254z" stroke="#f9f9f9" stroke-width=".7" fill="#f9f9f9" fill-rule="evenodd" style="stroke:#f9f9f9;stroke-width:.7;stroke-dasharray:none;stroke-linecap:butt;stroke-dashoffset:0;stroke-linejoin:miter;stroke-miterlimit:4;fill:#f9f9f9;fill-rule:evenodd;opacity:1"/></g><g><path d="M24.297 24.022h-5.312a.885.885 0 0 0 0 1.77H24.3a4.42 4.42 0 0 1 2.949 1.128.885.885 0 0 0 1.181-1.32 6.188 6.188 0 0 0-4.133-1.578z" stroke="#f9f9f9" stroke-width=".7" fill="#f9f9f9" fill-rule="evenodd" style="stroke:#f9f9f9;stroke-width:.7;stroke-dasharray:none;stroke-linecap:butt;stroke-dashoffset:0;stroke-linejoin:miter;stroke-miterlimit:4;fill:#f9f9f9;fill-rule:evenodd;opacity:1"/></g></g></g></svg>