<svg width="60" height="60" xmlns="http://www.w3.org/2000/svg"><g><path d="M0 30C0 13.431 13.431 0 30 0c16.569 0 30 13.431 30 30 0 16.569-13.431 30-30 30C13.431 60 0 46.569 0 30z" fill="#0091db" fill-rule="evenodd"/><path d="M14.14 31.006l-1.12 5.6a1.022 1.022 0 0 0 1.2 1.202l5.67-1.121c1.42.674 2.93 1.05 4.504 1.125a11.832 11.832 0 0 0 5.482 7.1c3.263 1.898 7.388 2.245 11.09.489l.048.009c5.775 1.142 5.712 1.137 5.799 1.132l.021-.001a1.022 1.022 0 0 0 1.001-1.221l-1.12-5.6a11.785 11.785 0 0 0 1.14-5.092c-.024-6.367-5.033-11.598-11.392-11.899a11.92 11.92 0 0 0-11.481-8.728c-6.595-.011-11.955 5.318-11.981 11.913-.005 1.761.384 3.501 1.14 5.092zm30.505 8.774l.888 4.442-4.51-.892a1.021 1.021 0 0 0-.662.093 9.766 9.766 0 0 1-4.487 1.076c-5.443 0-9.87-4.429-9.87-9.871.005-5.45 4.421-9.865 9.87-9.871 5.48 0 9.94 4.428 9.94 9.87 0 1.581-.363 3.091-1.077 4.488a1.02 1.02 0 0 0-.092.665zm-24.813-5.164l-4.51.892.89-4.442a1.021 1.021 0 0 0-.093-.665 9.765 9.765 0 0 1-1.076-4.487c0-5.443 4.459-9.87 9.939-9.87 4.283 0 8.055 2.784 9.373 6.767a11.932 11.932 0 0 0-10.342 12.927 9.724 9.724 0 0 1-3.518-1.029 1.021 1.021 0 0 0-.663-.093z" fill="#f9f9f9" fill-rule="evenodd" style="stroke:none;stroke-width:0;stroke-dasharray:none;stroke-linecap:butt;stroke-dashoffset:0;stroke-linejoin:miter;stroke-miterlimit:4;fill:#f9f9f9;fill-rule:evenodd;opacity:1"/></g></svg>