<svg width="60" height="60" xmlns="http://www.w3.org/2000/svg"><g><path d="M0 30C0 13.431 13.431 0 30 0c16.569 0 30 13.431 30 30 0 16.569-13.431 30-30 30C13.431 60 0 46.569 0 30z" fill="#0091db" fill-rule="evenodd"/><g><g><path d="M30.51 18.75l-6.174-2.558a.842.842 0 0 0-1.1.456l-2.508 6.056-4.384 5.287a.841.841 0 0 0-.162.766l2.38 8.382a.841.841 0 0 0 1.219.505l7.61-4.244a.841.841 0 0 0 .428-.656l.638-6.838 2.509-6.057a.842.842 0 0 0-.456-1.1zm-4.326 13.397l-5.11 2.85 2.178-5.258a.842.842 0 1 0-1.555-.643l-2.177 5.257-1.599-5.63 3.787-4.564 2.514 1.04 2.514 1.042-.552 5.906zm.991-7.545l-3.287-1.362-1.332-.551 1.913-4.62 4.62 1.913-1.914 4.62z" stroke="#f9f9f9" stroke-width=".3" fill="#f9f9f9" fill-rule="evenodd" style="stroke:#f9f9f9;stroke-width:.3;stroke-dasharray:none;stroke-linecap:butt;stroke-dashoffset:0;stroke-linejoin:miter;stroke-miterlimit:4;fill:#f9f9f9;fill-rule:evenodd;opacity:1"/></g><g><path d="M44.024 30.662h-9.011a3.549 3.549 0 0 0-3.545 3.545 3.549 3.549 0 0 0 3.545 3.544 1.864 1.864 0 0 1 1.862 1.862 1.864 1.864 0 0 1-1.862 1.862H16.99a.841.841 0 0 0 0 1.682h18.022a3.548 3.548 0 0 0 3.544-3.544 3.548 3.548 0 0 0-3.544-3.544 1.864 1.864 0 0 1-1.862-1.862 1.864 1.864 0 0 1 1.862-1.863h9.01a.841.841 0 1 0 0-1.682z" stroke="#f9f9f9" stroke-width=".3" fill="#f9f9f9" fill-rule="evenodd" style="stroke:#f9f9f9;stroke-width:.3;stroke-dasharray:none;stroke-linecap:butt;stroke-dashoffset:0;stroke-linejoin:miter;stroke-miterlimit:4;fill:#f9f9f9;fill-rule:evenodd;opacity:1"/></g></g></g></svg>