<svg width="60" height="60" xmlns="http://www.w3.org/2000/svg"><g><path d="M0 30C0 13.431 13.431 0 30 0c16.569 0 30 13.431 30 30 0 16.569-13.431 30-30 30C13.431 60 0 46.569 0 30z" fill="#0091db" fill-rule="evenodd"/><g><path d="M14 39a4 4 0 0 0 4 4h26a4 4 0 0 0 4-4V24a4 4 0 0 0-4-4H18a4 4 0 0 0-4 4v15z" stroke="#f9f9f9" stroke-width="2" fill="none"/><path d="M13 24h34v4H13v-4zM17 31a1 1 0 0 0 1 1h12a1 1 0 1 0 0-2H18a1 1 0 0 0-1 1zM17 35a1 1 0 0 0 1 1h5a1 1 0 1 0 0-2h-5a1 1 0 0 0-1 1z" fill="#f9f9f9" fill-rule="evenodd"/></g></g></svg>