<svg width="60" height="60" xmlns="http://www.w3.org/2000/svg"><g><path d="M0 30C0 13.431 13.431 0 30 0c16.569 0 30 13.431 30 30 0 16.569-13.431 30-30 30C13.431 60 0 46.569 0 30z" fill="#0091db" fill-rule="evenodd"/><g><path d="M20.897 39.181h4.687v-1.874h-4.687a3.75 3.75 0 0 1 0-7.5.937.937 0 0 0 .938-.946 8.437 8.437 0 0 1 16.714-1.631.937.937 0 0 0 .796.75 4.688 4.688 0 0 1-.637 9.327h-3.75v1.874h3.75a6.562 6.562 0 0 0 1.537-12.936 10.316 10.316 0 0 0-9.993-7.803c-.831 0-1.676.101-2.518.313a10.311 10.311 0 0 0-7.774 9.253 5.626 5.626 0 0 0-4.634 6.464 5.624 5.624 0 0 0 5.571 4.71z" stroke="#f9f9f9" stroke-width=".5" fill="#f9f9f9" fill-rule="evenodd"/><path d="M29.605 30.084l-3.75 3.75 1.322 1.32 2.156-2.146v8.99h1.875v-8.99l2.146 2.147 1.322-1.322-3.75-3.75a.937.937 0 0 0-1.322 0z" stroke="#f9f9f9" stroke-width=".5" fill="#f9f9f9" fill-rule="evenodd"/></g></g></svg>