<svg width="60" height="60" xmlns="http://www.w3.org/2000/svg"><g><path d="M0 30C0 13.431 13.431 0 30 0c16.569 0 30 13.431 30 30 0 16.569-13.431 30-30 30C13.431 60 0 46.569 0 30z" fill="#0091db" fill-rule="evenodd"/><path d="M21.065 41.473h2.378a1.667 1.667 0 0 0 1.665-1.665v-.348c.183.092.368.18.555.265 1.644.739 4.748 1.748 9.464 1.748h1.522a4.507 4.507 0 0 0 4.452-3.75l1.065-6.184a4.576 4.576 0 0 0 .066-.771 4.516 4.516 0 0 0-4.517-4.517h-4.316c.093-.25.174-.504.242-.762a9.103 9.103 0 0 0 .297-2.33c.002-.4-.027-.8-.085-1.195-.383-2.517-1.968-3.278-2.92-3.322a1.9 1.9 0 0 0-.087-.002c-1.858 0-2.115 1.63-2.139 3.26l-.002.308c0 2.106-2.362 3.856-3.61 4.635a1.662 1.662 0 0 0-1.652-1.543h-2.378c-.918 0-1.665.746-1.665 1.664v12.844c0 .918.747 1.665 1.665 1.665zm11.208-13.795h5.442a3.089 3.089 0 0 1 3.045 3.617l-1.066 6.184a3.084 3.084 0 0 1-3.045 2.566h-1.522c-6.472 0-9.714-2.024-10.019-2.225v-9.332c.66-.35 3.699-2.075 4.702-4.633a4.49 4.49 0 0 0 .322-1.647c0-.178.003-.355.009-.533.055-1.554.364-1.606.673-1.608h.032c.106 0 .21.02.31.055.578.2 1.236.96 1.34 2.582a7.905 7.905 0 0 1-.03 1.287c-.157 1.497-.697 2.43-.777 2.562l-.01.016a.715.715 0 0 0 .594 1.109zm-11.208-.951h2.378c.132 0 .238.106.238.237v12.844a.24.24 0 0 1-.238.238h-2.378a.238.238 0 0 1-.238-.238V26.964c0-.13.107-.237.238-.237z" stroke="#f9f9f9" stroke-width=".7" fill="#f9f9f9" fill-rule="evenodd"/></g></svg>