<svg xmlns="http://www.w3.org/2000/svg" width="32.442" height="39.999" viewBox="120.75 565.111 32.442 39.999"><g data-name="idea (1)"><g data-name="Tracé 268"><path d="M137.84 568.583v-2.603a.868.868 0 0 0-.869-.869.868.868 0 0 0-.867.869v2.603c0 .48.388.869.867.869a.868.868 0 0 0 .869-.869Z" fill="#fff" fill-rule="evenodd"/><path d="M137.84 568.583v-2.603a.868.868 0 0 0-.869-.869.868.868 0 0 0-.867.869v2.603c0 .48.388.869.867.869a.868.868 0 0 0 .869-.869Z" stroke-linejoin="round" stroke-linecap="round" stroke-width=".5" stroke="#fff" fill="transparent"/></g><g data-name="Tracé 269"><path d="m128.57 571.704-1.841-1.841a.868.868 0 0 0-1.179-.046.882.882 0 0 0-.049.046.865.865 0 0 0-.236.437.867.867 0 0 0 .195.745.881.881 0 0 0 .041.045l1.842 1.841a.863.863 0 0 0 .442.238.874.874 0 0 0 .171.016.865.865 0 0 0 .565-.208.885.885 0 0 0 .05-.046.868.868 0 0 0 .041-1.182.881.881 0 0 0-.042-.045Z" fill="#fff" fill-rule="evenodd"/><path d="m128.57 571.704-1.841-1.841a.868.868 0 0 0-1.179-.046.882.882 0 0 0-.049.046.865.865 0 0 0-.236.437.867.867 0 0 0 .195.745.881.881 0 0 0 .041.045l1.842 1.841a.863.863 0 0 0 .442.238.874.874 0 0 0 .171.016.865.865 0 0 0 .565-.208.885.885 0 0 0 .05-.046.868.868 0 0 0 .041-1.182.881.881 0 0 0-.042-.045Z" stroke-linejoin="round" stroke-linecap="round" stroke-width=".5" stroke="#fff" fill="transparent"/></g><g data-name="Tracé 270"><path d="M124.222 580.465h-2.604a.868.868 0 0 0-.868.867.868.868 0 0 0 .868.869h2.604c.48 0 .869-.39.869-.869a.868.868 0 0 0-.869-.867Z" fill="#fff" fill-rule="evenodd"/><path d="M124.222 580.465h-2.604a.868.868 0 0 0-.868.867.868.868 0 0 0 .868.869h2.604c.48 0 .869-.39.869-.869a.868.868 0 0 0-.869-.867Z" stroke-linejoin="round" stroke-linecap="round" stroke-width=".5" stroke="#fff" fill="transparent"/></g><g data-name="Tracé 271"><path d="m127.343 589.734-1.842 1.841a.864.864 0 0 0-.237.443.867.867 0 0 0 .192.735.88.88 0 0 0 .045.05.862.862 0 0 0 .438.236.873.873 0 0 0 .176.018.864.864 0 0 0 .565-.21.878.878 0 0 0 .049-.045l1.841-1.84a.868.868 0 0 0 .042-1.183.88.88 0 0 0-.042-.045.865.865 0 0 0-.437-.236.867.867 0 0 0-.745.194.881.881 0 0 0-.045.042Z" fill="#fff" fill-rule="evenodd"/><path d="m127.343 589.734-1.842 1.841a.864.864 0 0 0-.237.443.867.867 0 0 0 .192.735.88.88 0 0 0 .045.05.862.862 0 0 0 .438.236.873.873 0 0 0 .176.018.864.864 0 0 0 .565-.21.878.878 0 0 0 .049-.045l1.841-1.84a.868.868 0 0 0 .042-1.183.88.88 0 0 0-.042-.045.865.865 0 0 0-.437-.236.867.867 0 0 0-.745.194.881.881 0 0 0-.045.042Z" stroke-linejoin="round" stroke-linecap="round" stroke-width=".5" stroke="#fff" fill="transparent"/></g><g data-name="Tracé 272"><path d="m145.373 590.961 1.841 1.841a.862.862 0 0 0 .432.236c.06.012.12.019.182.019a.864.864 0 0 0 .564-.21.878.878 0 0 0 .05-.045.867.867 0 0 0 .045-1.178.881.881 0 0 0-.046-.049l-1.84-1.841a.865.865 0 0 0-.438-.236.867.867 0 0 0-.79.236.864.864 0 0 0-.238.445.867.867 0 0 0 .238.782Z" fill="#fff" fill-rule="evenodd"/><path d="m145.373 590.961 1.841 1.841a.862.862 0 0 0 .432.236c.06.012.12.019.182.019a.864.864 0 0 0 .564-.21.878.878 0 0 0 .05-.045.867.867 0 0 0 .045-1.178.881.881 0 0 0-.046-.049l-1.84-1.841a.865.865 0 0 0-.438-.236.867.867 0 0 0-.79.236.864.864 0 0 0-.238.445.867.867 0 0 0 .238.782Z" stroke-linejoin="round" stroke-linecap="round" stroke-width=".5" stroke="#fff" fill="transparent"/></g><g data-name="Tracé 273"><path d="M152.325 580.465h-2.605a.868.868 0 0 0-.867.867.868.868 0 0 0 .867.869h2.605c.479 0 .868-.39.868-.869a.868.868 0 0 0-.868-.867Z" fill="#fff" fill-rule="evenodd"/><path d="M152.325 580.465h-2.605a.868.868 0 0 0-.867.867.868.868 0 0 0 .867.869h2.605c.479 0 .868-.39.868-.869a.868.868 0 0 0-.868-.867Z" stroke-linejoin="round" stroke-linecap="round" stroke-width=".5" stroke="#fff" fill="transparent"/></g><g data-name="Tracé 274"><path d="m147.214 569.863-1.841 1.84a.868.868 0 0 0-.046 1.18.882.882 0 0 0 .046.048.863.863 0 0 0 .445.238.874.874 0 0 0 .168.016.865.865 0 0 0 .565-.208.88.88 0 0 0 .05-.046l1.84-1.84a.864.864 0 0 0 .237-.439.867.867 0 0 0-.191-.74.882.882 0 0 0-.046-.05.868.868 0 0 0-1.178-.045.88.88 0 0 0-.049.046Z" fill="#fff" fill-rule="evenodd"/><path d="m147.214 569.863-1.841 1.84a.868.868 0 0 0-.046 1.18.882.882 0 0 0 .046.048.863.863 0 0 0 .445.238.874.874 0 0 0 .168.016.865.865 0 0 0 .565-.208.88.88 0 0 0 .05-.046l1.84-1.84a.864.864 0 0 0 .237-.439.867.867 0 0 0-.191-.74.882.882 0 0 0-.046-.05.868.868 0 0 0-1.178-.045.88.88 0 0 0-.049.046Z" stroke-linejoin="round" stroke-linecap="round" stroke-width=".5" stroke="#fff" fill="transparent"/></g><g data-name="Tracé 275"><path d="M133.77 597.43h6.398a.868.868 0 0 0 .868-.867c0-2.902 1.18-5.675 3.325-7.81 2.318-2.307 3.409-5.508 2.994-8.782-.597-4.716-4.46-8.521-9.186-9.047a10.988 10.988 0 0 0-1.21-.067 10.343 10.343 0 0 0-6.96 2.666 10.497 10.497 0 0 0-3.494 7.812 10.41 10.41 0 0 0 2.984 7.319 12.152 12.152 0 0 1 2.828 4.49 10.41 10.41 0 0 1 .586 3.419.868.868 0 0 0 .867.867Zm5.56-1.736h-4.723a12.92 12.92 0 0 0-2.73-6.936 14.875 14.875 0 0 0-1.146-1.318 8.684 8.684 0 0 1-2.49-6.105 8.759 8.759 0 0 1 2.915-6.519c1.875-1.677 4.298-2.445 6.82-2.166 3.94.438 7.16 3.609 7.657 7.54a9.089 9.089 0 0 1 .072 1.14 8.69 8.69 0 0 1-2.569 6.193 12.765 12.765 0 0 0-3.806 8.171Z" fill="#fff" fill-rule="evenodd"/><path d="M133.77 597.43h6.398a.868.868 0 0 0 .868-.867c0-2.902 1.18-5.675 3.325-7.81 2.318-2.307 3.409-5.508 2.994-8.782-.597-4.716-4.46-8.521-9.186-9.047a10.988 10.988 0 0 0-1.21-.067 10.343 10.343 0 0 0-6.96 2.666 10.497 10.497 0 0 0-3.494 7.812 10.41 10.41 0 0 0 2.984 7.319 12.152 12.152 0 0 1 2.828 4.49 10.41 10.41 0 0 1 .586 3.419.868.868 0 0 0 .867.867Zm5.56-1.736h-4.723a12.92 12.92 0 0 0-2.73-6.936 14.875 14.875 0 0 0-1.146-1.318 8.684 8.684 0 0 1-2.49-6.105 8.759 8.759 0 0 1 2.915-6.519c1.875-1.677 4.298-2.445 6.82-2.166 3.94.438 7.16 3.609 7.657 7.54a9.089 9.089 0 0 1 .072 1.14 8.69 8.69 0 0 1-2.569 6.193 12.765 12.765 0 0 0-3.806 8.171Z" stroke-linejoin="round" stroke-linecap="round" stroke-width=".5" stroke="#fff" fill="transparent"/></g><g data-name="Tracé 276"><path d="m134.074 602.122 6.289-1.447a.869.869 0 0 0 .673-.845.872.872 0 0 0-.022-.195.868.868 0 0 0-.847-.673.88.88 0 0 0-.193.021l-6.29 1.447a.87.87 0 0 0-.673.846.87.87 0 0 0 .022.194.868.868 0 0 0 .845.674.887.887 0 0 0 .139-.011.867.867 0 0 0 .057-.011Z" fill="#fff" fill-rule="evenodd"/><path d="m134.074 602.122 6.289-1.447a.869.869 0 0 0 .673-.845.872.872 0 0 0-.022-.195.868.868 0 0 0-.847-.673.88.88 0 0 0-.193.021l-6.29 1.447a.87.87 0 0 0-.673.846.87.87 0 0 0 .022.194.868.868 0 0 0 .845.674.887.887 0 0 0 .139-.011.867.867 0 0 0 .057-.011Z" stroke-linejoin="round" stroke-linecap="round" stroke-width=".5" stroke="#fff" fill="transparent"/></g><g data-name="Tracé 277"><path d="m139.973 601.949-6.289 1.447a.868.868 0 0 0-.673.845.873.873 0 0 0 .022.196.868.868 0 0 0 .845.673.875.875 0 0 0 .139-.011.908.908 0 0 0 .057-.011l6.288-1.447a.869.869 0 0 0 .674-.845.871.871 0 0 0-.022-.196.868.868 0 0 0-.847-.673.878.878 0 0 0-.194.022Z" fill="#fff" fill-rule="evenodd"/><path d="m139.973 601.949-6.289 1.447a.868.868 0 0 0-.673.845.873.873 0 0 0 .022.196.868.868 0 0 0 .845.673.875.875 0 0 0 .139-.011.908.908 0 0 0 .057-.011l6.288-1.447a.869.869 0 0 0 .674-.845.871.871 0 0 0-.022-.196.868.868 0 0 0-.847-.673.878.878 0 0 0-.194.022Z" stroke-linejoin="round" stroke-linecap="round" stroke-width=".5" stroke="#fff" fill="transparent"/></g></g></svg>