<svg xmlns="http://www.w3.org/2000/svg" width="24.369" height="41.424" viewBox="947.479 949.865 24.369 41.424"><g data-name="mouse (1)"><path d="M947.479 962.05v17.054a12.198 12.198 0 0 0 12.184 12.185 12.198 12.198 0 0 0 12.185-12.185V962.05a12.198 12.198 0 0 0-12.185-12.184 12.198 12.198 0 0 0-12.184 12.184Zm2.485 17.054v-17.055a9.71 9.71 0 0 1 9.7-9.699 9.71 9.71 0 0 1 9.698 9.7v17.054c0 5.348-4.35 9.7-9.699 9.7-5.348 0-9.7-4.352-9.7-9.7Z" fill="#d6d6d6" fill-rule="evenodd" data-name="Tracé 325"/><path d="M958.42 959.348v5.72a1.243 1.243 0 0 0 1.243 1.242c.686 0 1.243-.556 1.243-1.242v-5.72c0-.687-.556-1.243-1.243-1.243a1.242 1.242 0 0 0-1.242 1.243Z" fill="#d6d6d6" fill-rule="evenodd" data-name="Tracé 326"/></g></svg>