<svg xmlns="http://www.w3.org/2000/svg" width="35.874" height="38.346" viewBox="121 294 35.874 38.346"><g data-name="task"><path d="M132.908 304.86h-5.991a1.123 1.123 0 0 0 0 2.246h5.991c.62 0 1.123-.503 1.123-1.123a1.123 1.123 0 0 0-1.123-1.123Z" fill="#fff" fill-rule="evenodd" data-name="Tracé 224"/><path d="M132.908 310.851h-5.991a1.123 1.123 0 0 0-1.124 1.123 1.123 1.123 0 0 0 1.124 1.124h5.991a1.123 1.123 0 0 0 1.123-1.124 1.123 1.123 0 0 0-1.123-1.123Z" fill="#fff" fill-rule="evenodd" data-name="Tracé 225"/><path d="M132.908 316.843h-5.991c-.62 0-1.124.503-1.124 1.123a1.123 1.123 0 0 0 1.124 1.123h5.991a1.123 1.123 0 0 0 1.123-1.123 1.123 1.123 0 0 0-1.123-1.123Z" fill="#fff" fill-rule="evenodd" data-name="Tracé 226"/><path d="M149.01 314.59v-10.256a5.585 5.585 0 0 0-1.607-3.934l-4.559-4.714a5.356 5.356 0 0 0-.003-.003 5.356 5.356 0 0 1-.003-.004A5.653 5.653 0 0 0 138.83 294h-14.46a3.374 3.374 0 0 0-3.371 3.37v29.134a3.374 3.374 0 0 0 3.37 3.37h17.363a8.883 8.883 0 0 0 5.6 2.454 9.006 9.006 0 0 0 .554.018c4.955 0 8.987-3.999 8.987-8.913a8.952 8.952 0 0 0-7.864-8.843Zm-25.763 11.914V297.37a1.125 1.125 0 0 1 1.123-1.123h14.461c.897 0 1.772.366 2.402 1.005l4.557 4.713a10.328 10.328 0 0 1 .007.006 3.35 3.35 0 0 1 .966 2.363v10.257c-4.386.555-7.789 4.308-7.789 8.842a8.858 8.858 0 0 0 .8 3.687 8.897 8.897 0 0 0 .251.507H124.37a1.125 1.125 0 0 1-1.123-1.123Zm24.64 3.595a6.673 6.673 0 0 1-6.666-6.666 6.673 6.673 0 0 1 6.666-6.665 6.71 6.71 0 0 1 6.74 6.665 6.71 6.71 0 0 1-6.74 6.666Z" fill="#fff" fill-rule="evenodd" data-name="Tracé 227"/><path d="M148.896 320.917 147 323.192l-.43-.86a1.12 1.12 0 0 0-.684-.575 1.123 1.123 0 0 0-1.326 1.579l1.199 2.397c.17.34.498.57.875.614a1.144 1.144 0 0 0 .13.007 1.124 1.124 0 0 0 .862-.404l2.996-3.595a1.124 1.124 0 0 0-.144-1.582 1.118 1.118 0 0 0-.522-.243c-.36-.064-.74.05-1.006.327a1.14 1.14 0 0 0-.054.06Z" fill="#a0c26c" fill-rule="evenodd" data-name="Tracé 228"/><path d="M138.9 307.106h1.198a1.123 1.123 0 0 0 1.123-1.123 1.123 1.123 0 0 0-1.123-1.123H138.9c-.62 0-1.124.503-1.124 1.123a1.123 1.123 0 0 0 1.124 1.123Z" fill="#fff" fill-rule="evenodd" data-name="Tracé 229"/><path d="M140.098 310.851H138.9c-.62 0-1.124.503-1.124 1.123a1.123 1.123 0 0 0 1.124 1.124h1.198c.62 0 1.123-.503 1.123-1.124a1.123 1.123 0 0 0-1.123-1.123Z" fill="#fff" fill-rule="evenodd" data-name="Tracé 230"/></g></svg>