<svg width="40.06" height="40.06" xmlns="http://www.w3.org/2000/svg"><g><g><path d="M36.776 5.478L18.663 23.543l-6.535-7.097a1.51 1.51 0 0 0-2.221 2.045l7.6 8.253a1.508 1.508 0 0 0 2.176.047L38.908 7.616a1.51 1.51 0 1 0-2.132-2.138z" fill="#03a9f5" fill-rule="evenodd" style="stroke:none;stroke-width:0;stroke-dasharray:none;stroke-linecap:butt;stroke-dashoffset:0;stroke-linejoin:miter;stroke-miterlimit:4;fill:#03a9f5;fill-rule:evenodd;opacity:1"/></g><g><path d="M38.55 18.52a1.51 1.51 0 0 0-1.51 1.51c0 9.38-7.63 17.01-17.01 17.01-9.38 0-17.01-7.63-17.01-17.01.01-9.39 7.62-17 17.01-17.01a1.51 1.51 0 1 0 0-3.02C8.985 0 0 8.986 0 20.03c0 11.045 8.986 20.03 20.03 20.03 11.045 0 20.03-8.985 20.03-20.03a1.51 1.51 0 0 0-1.51-1.51z" fill="#03a9f5" fill-rule="evenodd" style="stroke:none;stroke-width:0;stroke-dasharray:none;stroke-linecap:butt;stroke-dashoffset:0;stroke-linejoin:miter;stroke-miterlimit:4;fill:#03a9f5;fill-rule:evenodd;opacity:1"/></g></g></svg>