<svg xmlns="http://www.w3.org/2000/svg" width="35.874" height="38.346"><path d="M28.01 20.59V10.334A5.585 5.585 0 0 0 26.403 6.4l-4.559-4.714a5.356 5.356 0 0 0-.003-.003 5.356 5.356 0 0 1-.003-.004A5.653 5.653 0 0 0 17.83 0H3.371A3.374 3.374 0 0 0 0 3.37v29.134a3.374 3.374 0 0 0 3.37 3.37h17.363a8.883 8.883 0 0 0 5.6 2.454 9.006 9.006 0 0 0 .554.018c4.955 0 8.987-3.999 8.987-8.913a8.952 8.952 0 0 0-7.864-8.843ZM2.247 32.504V3.37A1.125 1.125 0 0 1 3.37 2.247h14.461c.897 0 1.772.366 2.402 1.005l4.557 4.713a10.328 10.328 0 0 1 .007.006 3.35 3.35 0 0 1 .966 2.363V20.59c-4.386.555-7.789 4.308-7.789 8.842a8.858 8.858 0 0 0 .8 3.687 8.897 8.897 0 0 0 .251.507H3.37a1.125 1.125 0 0 1-1.123-1.123Zm24.64 3.595a6.673 6.673 0 0 1-6.666-6.666 6.673 6.673 0 0 1 6.666-6.665 6.71 6.71 0 0 1 6.74 6.665 6.71 6.71 0 0 1-6.74 6.666Z" fill="#fff" fill-rule="evenodd" data-name="Tracé 227"/></svg>